<mxfile host="app.diagrams.net" modified="2020-09-02T09:52:42.834Z" agent="5.0 (X11)" etag="EAjp5LURSY5n-k41PVBr" version="13.6.6" type="github">
  <diagram id="R2lEEEUBdFMjLlhIrx00" name="Page-1">
    <mxGraphModel dx="1592" dy="1610" grid="1" gridSize="10" guides="1" tooltips="1" connect="1" arrows="1" fold="1" page="1" pageScale="1" pageWidth="1100" pageHeight="700" math="0" shadow="0" extFonts="Permanent Marker^https://fonts.googleapis.com/css?family=Permanent+Marker">
      <root>
        <mxCell id="0" />
        <mxCell id="1" parent="0" />
        <mxCell id="64gAHUJL7ucdFKRDfFAg-3" value="&lt;font style=&quot;font-size: 15px&quot;&gt;customer_data_base&lt;br&gt;request_table&lt;/font&gt;" style="shape=cylinder2;whiteSpace=wrap;html=1;boundedLbl=1;backgroundOutline=1;size=15;strokeWidth=2;" vertex="1" parent="1">
          <mxGeometry x="275" y="-260" width="220" height="120" as="geometry" />
        </mxCell>
        <mxCell id="64gAHUJL7ucdFKRDfFAg-13" style="edgeStyle=orthogonalEdgeStyle;rounded=0;orthogonalLoop=1;jettySize=auto;html=1;strokeWidth=2;entryX=0.5;entryY=1;entryDx=0;entryDy=0;" edge="1" parent="1" source="64gAHUJL7ucdFKRDfFAg-4" target="64gAHUJL7ucdFKRDfFAg-14">
          <mxGeometry relative="1" as="geometry">
            <mxPoint x="30" y="-540" as="targetPoint" />
          </mxGeometry>
        </mxCell>
        <mxCell id="64gAHUJL7ucdFKRDfFAg-4" value="&lt;font style=&quot;font-size: 22px&quot;&gt;RequestRestController &lt;br&gt;&lt;b&gt;&lt;font color=&quot;#3333FF&quot;&gt;POST GET&lt;/font&gt;&lt;/b&gt;&lt;/font&gt;" style="rounded=0;whiteSpace=wrap;html=1;strokeWidth=2;" vertex="1" parent="1">
          <mxGeometry x="30" y="-450" width="250" height="110" as="geometry" />
        </mxCell>
        <mxCell id="64gAHUJL7ucdFKRDfFAg-7" value="&lt;font style=&quot;font-size: 22px&quot;&gt;RequestIdRestController &lt;br&gt;&lt;font color=&quot;#3333FF&quot;&gt;&lt;b&gt;PUT&lt;/b&gt;&lt;/font&gt;&lt;br&gt;&lt;/font&gt;" style="rounded=0;whiteSpace=wrap;html=1;strokeWidth=2;" vertex="1" parent="1">
          <mxGeometry x="420" y="-450" width="270" height="110" as="geometry" />
        </mxCell>
        <mxCell id="64gAHUJL7ucdFKRDfFAg-16" style="edgeStyle=orthogonalEdgeStyle;rounded=0;orthogonalLoop=1;jettySize=auto;html=1;strokeWidth=2;" edge="1" parent="1" source="64gAHUJL7ucdFKRDfFAg-14">
          <mxGeometry relative="1" as="geometry">
            <mxPoint x="155" y="-450" as="targetPoint" />
          </mxGeometry>
        </mxCell>
        <mxCell id="64gAHUJL7ucdFKRDfFAg-14" value="&lt;font style=&quot;font-size: 22px&quot;&gt;Client&lt;/font&gt;" style="rounded=0;whiteSpace=wrap;html=1;strokeWidth=2;" vertex="1" parent="1">
          <mxGeometry x="95" y="-590" width="120" height="60" as="geometry" />
        </mxCell>
        <mxCell id="64gAHUJL7ucdFKRDfFAg-17" value="&lt;font style=&quot;font-size: 22px&quot; color=&quot;#3333FF&quot;&gt;POST&lt;/font&gt;" style="text;strokeColor=none;fillColor=none;html=1;fontSize=24;fontStyle=1;verticalAlign=middle;align=center;" vertex="1" parent="1">
          <mxGeometry x="170" y="-500" width="100" height="30" as="geometry" />
        </mxCell>
        <mxCell id="64gAHUJL7ucdFKRDfFAg-20" value="&lt;font style=&quot;font-size: 22px&quot;&gt;StatusRestController&lt;br&gt;&lt;b&gt;&lt;font color=&quot;#3333FF&quot;&gt;GET&lt;/font&gt;&lt;/b&gt;&lt;/font&gt;" style="rounded=0;whiteSpace=wrap;html=1;strokeWidth=2;" vertex="1" parent="1">
          <mxGeometry x="780" y="-450" width="220" height="110" as="geometry" />
        </mxCell>
        <mxCell id="64gAHUJL7ucdFKRDfFAg-23" value="" style="endArrow=classic;startArrow=classic;html=1;strokeWidth=2;entryX=0;entryY=0.5;entryDx=0;entryDy=0;exitX=1;exitY=0.5;exitDx=0;exitDy=0;" edge="1" parent="1" source="64gAHUJL7ucdFKRDfFAg-7" target="64gAHUJL7ucdFKRDfFAg-20">
          <mxGeometry width="50" height="50" relative="1" as="geometry">
            <mxPoint x="760" y="-310" as="sourcePoint" />
            <mxPoint x="810" y="-360" as="targetPoint" />
          </mxGeometry>
        </mxCell>
        <mxCell id="64gAHUJL7ucdFKRDfFAg-25" value="" style="endArrow=classic;html=1;strokeWidth=2;" edge="1" parent="1">
          <mxGeometry width="50" height="50" relative="1" as="geometry">
            <mxPoint x="240" y="-340" as="sourcePoint" />
            <mxPoint x="331.42857142857156" y="-260" as="targetPoint" />
          </mxGeometry>
        </mxCell>
        <mxCell id="64gAHUJL7ucdFKRDfFAg-26" value="" style="endArrow=classic;startArrow=classic;html=1;strokeWidth=2;exitX=0.705;exitY=-0.025;exitDx=0;exitDy=0;exitPerimeter=0;" edge="1" parent="1">
          <mxGeometry width="50" height="50" relative="1" as="geometry">
            <mxPoint x="445.0999999999999" y="-263" as="sourcePoint" />
            <mxPoint x="520" y="-340" as="targetPoint" />
          </mxGeometry>
        </mxCell>
        <mxCell id="64gAHUJL7ucdFKRDfFAg-27" value="&lt;font style=&quot;font-size: 22px&quot; color=&quot;#3333FF&quot;&gt;GET&lt;/font&gt;" style="text;strokeColor=none;fillColor=none;html=1;fontSize=24;fontStyle=1;verticalAlign=middle;align=center;" vertex="1" parent="1">
          <mxGeometry x="690" y="-430" width="100" height="30" as="geometry" />
        </mxCell>
        <mxCell id="64gAHUJL7ucdFKRDfFAg-28" value="&lt;font style=&quot;font-size: 22px&quot;&gt;CronJob&lt;/font&gt;" style="ellipse;whiteSpace=wrap;html=1;strokeWidth=2;" vertex="1" parent="1">
          <mxGeometry x="790" y="-300" width="120" height="110" as="geometry" />
        </mxCell>
        <mxCell id="64gAHUJL7ucdFKRDfFAg-29" value="" style="endArrow=classic;html=1;strokeWidth=2;" edge="1" parent="1" source="64gAHUJL7ucdFKRDfFAg-28" target="64gAHUJL7ucdFKRDfFAg-7">
          <mxGeometry width="50" height="50" relative="1" as="geometry">
            <mxPoint x="710" y="-330" as="sourcePoint" />
            <mxPoint x="760" y="-380" as="targetPoint" />
          </mxGeometry>
        </mxCell>
        <mxCell id="64gAHUJL7ucdFKRDfFAg-31" value="&lt;font style=&quot;font-size: 22px&quot; color=&quot;#3333FF&quot;&gt;PUT&lt;/font&gt;" style="text;strokeColor=none;fillColor=none;html=1;fontSize=24;fontStyle=1;verticalAlign=middle;align=center;" vertex="1" parent="1">
          <mxGeometry x="661.5" y="-290" width="100" height="30" as="geometry" />
        </mxCell>
        <mxCell id="64gAHUJL7ucdFKRDfFAg-32" value="" style="line;strokeWidth=4;direction=south;html=1;strokeColor=#999999;" vertex="1" parent="1">
          <mxGeometry x="380" y="-480" width="10" height="180" as="geometry" />
        </mxCell>
        <mxCell id="64gAHUJL7ucdFKRDfFAg-33" value="" style="line;strokeWidth=4;direction=west;html=1;strokeColor=#999999;" vertex="1" parent="1">
          <mxGeometry x="384" y="-306" width="250" height="10" as="geometry" />
        </mxCell>
        <mxCell id="64gAHUJL7ucdFKRDfFAg-36" value="" style="line;strokeWidth=4;direction=south;html=1;strokeColor=#999999;" vertex="1" parent="1">
          <mxGeometry x="631" y="-304" width="10" height="134" as="geometry" />
        </mxCell>
        <mxCell id="64gAHUJL7ucdFKRDfFAg-38" value="" style="line;strokeWidth=4;html=1;perimeter=backbonePerimeter;points=[];outlineConnect=0;strokeColor=#999999;" vertex="1" parent="1">
          <mxGeometry x="383" y="-483" width="657" height="10" as="geometry" />
        </mxCell>
        <mxCell id="64gAHUJL7ucdFKRDfFAg-39" value="" style="line;strokeWidth=4;direction=south;html=1;strokeColor=#999999;" vertex="1" parent="1">
          <mxGeometry x="1035" y="-480" width="10" height="310" as="geometry" />
        </mxCell>
        <mxCell id="64gAHUJL7ucdFKRDfFAg-44" value="" style="line;strokeWidth=4;html=1;strokeColor=#999999;" vertex="1" parent="1">
          <mxGeometry x="634" y="-177" width="406" height="10" as="geometry" />
        </mxCell>
        <mxCell id="64gAHUJL7ucdFKRDfFAg-45" value="&lt;font style=&quot;font-size: 22px&quot;&gt;one time &lt;br&gt;every minute&lt;/font&gt;" style="text;strokeColor=none;fillColor=none;html=1;fontSize=24;fontStyle=1;verticalAlign=middle;align=center;" vertex="1" parent="1">
          <mxGeometry x="661.5" y="-250" width="100" height="30" as="geometry" />
        </mxCell>
      </root>
    </mxGraphModel>
  </diagram>
</mxfile>
